<?xml version="1.0" encoding="UTF-8" standalone="no"?>
<!-- Created with Inkscape (http://www.inkscape.org/) -->

<svg
   xmlns:dc="http://purl.org/dc/elements/1.1/"
   xmlns:cc="http://creativecommons.org/ns#"
   xmlns:rdf="http://www.w3.org/1999/02/22-rdf-syntax-ns#"
   xmlns:svg="http://www.w3.org/2000/svg"
   xmlns="http://www.w3.org/2000/svg"
   xmlns:sodipodi="http://sodipodi.sourceforge.net/DTD/sodipodi-0.dtd"
   xmlns:inkscape="http://www.inkscape.org/namespaces/inkscape"
   width="24"
   height="48"
   viewBox="0 0 24 48.000001"
   id="svg2"
   version="1.1"
   inkscape:version="0.91 r13725"
   sodipodi:docname="wwIcon.svg">
  <defs
     id="defs4" />
  <sodipodi:namedview
     id="base"
     pagecolor="#ffffff"
     bordercolor="#666666"
     borderopacity="1.0"
     inkscape:pageopacity="0.0"
     inkscape:pageshadow="2"
     inkscape:zoom="17.291667"
     inkscape:cx="12"
     inkscape:cy="24"
     inkscape:document-units="px"
     inkscape:current-layer="layer1"
     showgrid="true"
     units="px"
     inkscape:snap-nodes="true"
     inkscape:snap-to-guides="false"
     inkscape:snap-others="true"
     inkscape:object-nodes="true"
     inkscape:window-width="1920"
     inkscape:window-height="1012"
     inkscape:window-x="-8"
     inkscape:window-y="-8"
     inkscape:window-maximized="1"
     inkscape:snap-smooth-nodes="true"
     inkscape:snap-global="false">
    <inkscape:grid
       type="xygrid"
       id="grid3336" />
  </sodipodi:namedview>
  <metadata
     id="metadata7">
    <rdf:RDF>
      <cc:Work
         rdf:about="">
        <dc:format>image/svg+xml</dc:format>
        <dc:type
           rdf:resource="http://purl.org/dc/dcmitype/StillImage" />
        <dc:title />
      </cc:Work>
    </rdf:RDF>
  </metadata>
  <g
     inkscape:label="レイヤー 1"
     inkscape:groupmode="layer"
     id="layer1"
     transform="translate(0,-1004.3622)">
    <path
       style="fill:#b0b0b0;fill-opacity:1"
       d="m 3,27 0,18 18,0 0,-18 z m 6,1 3,0 0,6.462891 2.017249,-0.02892 L 14,32 19.029297,36.041016 14,40 13.988333,37.433975 12,37.462891 12,44 l -3,0 0,-6.537109 -3.9707031,0 0,-3 3.9707031,0 z"
       transform="translate(0,1004.3622)"
       id="rect3342"
       inkscape:connector-curvature="0"
       sodipodi:nodetypes="ccccccccccccccccccccc" />
    <path
       id="path4168"
       style="fill:#b0b0b0;fill-opacity:1;fill-rule:evenodd;stroke:none;stroke-width:1px;stroke-linecap:butt;stroke-linejoin:miter;stroke-opacity:1"
       d="m 10,1019.3622 0,0 0,-2 -5.0578313,3.4627 5.0578313,3.5373 0,-2 0,0 m -5,-12 5,0 0,3 -5,0 z m 8,6 c 0,3.375 -3,3 -3,3 l 0,-6 c 0,0 3,-0.375 3,3 z m -3,-6 0,12 c 2.761424,0 5.901205,-2 5.901205,-6 0,-4 -3.139781,-6 -5.901205,-6 z m 6,-2 3,0 0,16 -3,0 z m -13,-1 18,0 0,18 -18,0 z"
       inkscape:connector-curvature="0"
       sodipodi:nodetypes="ccccccccccccsccsccsccccccccccc" />
  </g>
</svg>
